<?xml version="1.0" encoding="utf-8"?>
<!-- Generator: Adobe Illustrator 13.0.0, SVG Export Plug-In . SVG Version: 6.00 Build 14948)  -->
<!DOCTYPE svg PUBLIC "-//W3C//DTD SVG 1.1//EN" "http://www.w3.org/Graphics/SVG/1.1/DTD/svg11.dtd">
<svg version="1.1" id="Layer_1" xmlns="http://www.w3.org/2000/svg" xmlns:xlink="http://www.w3.org/1999/xlink" x="0px" y="0px"
	 width="48px" height="48px" viewBox="0 0 48 48" enable-background="new 0 0 48 48" xml:space="preserve">
<g>
	<g>
		<path fill="#999999" d="M40.732,10.353c-2.548,0-4.645-1.853-5.038-4.288L24.197,20.359L10.194,3.053H4.483v42.138h6.033V12.403
			l13.106,16.289h1.116l12.955-16.289v32.788h6.063V9.348C42.908,9.973,41.869,10.353,40.732,10.353z"/>
	</g>
</g>
<g>
	<g>
		<path fill="#F4A49D" d="M40.732,10.353c-1.143,0-2.188-0.385-3.04-1.015l0.011,35.849h6.058L43.75,9.354
			C42.903,9.975,41.866,10.353,40.732,10.353z"/>
	</g>
</g>
<path fill="#F4A49D" d="M40.678,1.661c0.998,0,1.853,0.342,2.562,1.03c0.712,0.689,1.068,1.533,1.068,2.531
	c0,0.978-0.356,1.82-1.068,2.531c-0.709,0.711-1.563,1.065-2.562,1.065c-0.935,0-1.752-0.359-2.466-1.083
	c-0.709-0.722-1.063-1.559-1.063-2.514c0-0.932,0.354-1.759,1.063-2.479C38.926,2.023,39.743,1.661,40.678,1.661z"/>
<rect x="81.833" y="35" fill="#FFFFFF" width="48" height="48"/>
</svg>
