<?xml version="1.0" encoding="utf-8"?>
<!-- Generator: Adobe Illustrator 13.0.0, SVG Export Plug-In . SVG Version: 6.00 Build 14948)  -->
<!DOCTYPE svg PUBLIC "-//W3C//DTD SVG 1.1//EN" "http://www.w3.org/Graphics/SVG/1.1/DTD/svg11.dtd">
<svg version="1.1" id="Layer_1" xmlns="http://www.w3.org/2000/svg" xmlns:xlink="http://www.w3.org/1999/xlink" x="0px" y="0px"
	 width="48px" height="48px" viewBox="0 0 48 48" enable-background="new 0 0 48 48" xml:space="preserve">
<path fill="#FFFFFF" d="M48.125,36.125c0,6.627-5.373,12-12,12H12c-6.627,0-12-5.373-12-12V12C0,5.373,5.373,0,12,0h24.125
	c6.627,0,12,5.373,12,12V36.125z"/>
<rect x="0.086" y="0.08" display="none" fill="#FFFFFF" width="48" height="48"/>
<g>
	<g>
		<g>
			<path fill="#999999" d="M36.508,14.8c-1.869,0-3.406-1.359-3.695-3.146l-8.437,10.488L14.102,9.444h-4.19v30.917h4.426V16.305
				l9.616,11.951h0.817l9.506-11.951v24.056h4.449V14.063C38.104,14.521,37.342,14.8,36.508,14.8z"/>
		</g>
	</g>
	<g>
		<g>
			<path fill="#F4A49D" d="M36.508,14.8c-0.839,0-1.605-0.282-2.23-0.745l0.009,26.304h4.444l-0.008-26.292
				C38.102,14.523,37.34,14.8,36.508,14.8z"/>
		</g>
	</g>
	<path fill="#F4A49D" d="M36.468,8.423c0.732,0,1.359,0.251,1.88,0.756c0.522,0.506,0.783,1.125,0.783,1.857
		c0,0.718-0.261,1.335-0.783,1.857c-0.521,0.522-1.146,0.782-1.88,0.782c-0.686,0-1.284-0.264-1.809-0.795
		c-0.521-0.529-0.78-1.144-0.78-1.844c0-0.684,0.26-1.291,0.78-1.818C35.184,8.688,35.782,8.423,36.468,8.423z"/>
</g>
</svg>
