<?xml version="1.0" encoding="utf-8"?>
<!-- Generator: Adobe Illustrator 13.0.0, SVG Export Plug-In . SVG Version: 6.00 Build 14948)  -->
<!DOCTYPE svg PUBLIC "-//W3C//DTD SVG 1.1//EN" "http://www.w3.org/Graphics/SVG/1.1/DTD/svg11.dtd">
<svg version="1.1" id="Layer_1" xmlns="http://www.w3.org/2000/svg" xmlns:xlink="http://www.w3.org/1999/xlink" x="0px" y="0px"
	 width="48px" height="48px" viewBox="0 0 48 48" enable-background="new 0 0 48 48" xml:space="preserve">
<path fill="#F4A49D" d="M48.25,36.313c0,6.627-5.373,12-12,12H12.125c-6.627,0-12-5.373-12-12V12.188c0-6.627,5.373-12,12-12H36.25
	c6.627,0,12,5.373,12,12V36.313z"/>
<rect x="0.086" y="0.08" display="none" fill="#FFFFFF" width="48" height="48"/>
<g display="none">
</g>
<g>
	<g>
		<path fill="#FFFFFF" d="M8.302,47.68c1.202,0.404,2.485,0.633,3.823,0.633h21.371L47.265,7.429
			C45.422,3.17,41.186,0.188,36.25,0.188h-2.433l-6.104,20.441c-2.301,7.703-4.402,15.706-6.103,23.809h-0.3
			c-1.601-8.402-3.701-16.105-6.002-24.108L9.593,0.461C4.183,1.624,0.125,6.43,0.125,12.188v9.977L8.302,47.68z"/>
	</g>
	<g>
		<path fill="none" stroke="#FFFFFF" stroke-width="0.25" d="M8.302,47.68c1.202,0.404,2.485,0.633,3.823,0.633h21.371L47.265,7.429
			C45.422,3.17,41.186,0.188,36.25,0.188h-2.433l-6.104,20.441c-2.301,7.703-4.402,15.706-6.103,23.809h-0.3
			c-1.601-8.402-3.701-16.105-6.002-24.108L9.593,0.461C4.183,1.624,0.125,6.43,0.125,12.188v9.977L8.302,47.68z"/>
	</g>
</g>
</svg>
